<?xml version="1.0" encoding="utf-8"?>
<!-- Generator: Adobe Illustrator 16.0.0, SVG Export Plug-In . SVG Version: 6.00 Build 0)  -->
<!DOCTYPE svg PUBLIC "-//W3C//DTD SVG 1.1//EN" "http://www.w3.org/Graphics/SVG/1.1/DTD/svg11.dtd">
<svg version="1.1" id="Layer_1" xmlns="http://www.w3.org/2000/svg" xmlns:xlink="http://www.w3.org/1999/xlink" x="0px" y="0px"
	 width="40px" height="40px" viewBox="876 876 40 40" enable-background="new 876 876 40 40" xml:space="preserve">
<path fill="#5C4B92" d="M896,910.05c-0.314,0-0.58-0.109-0.796-0.329l-11.297-11.013c-0.122-0.099-0.288-0.256-0.499-0.476
	s-0.547-0.619-1.005-1.198c-0.458-0.579-0.869-1.174-1.231-1.784c-0.362-0.609-0.685-1.348-0.969-2.214
	c-0.284-0.865-0.425-1.707-0.425-2.524c0-2.683,0.766-4.78,2.299-6.293c1.533-1.512,3.651-2.269,6.355-2.269
	c0.748,0,1.512,0.132,2.29,0.394c0.778,0.263,1.502,0.616,2.172,1.062s1.246,0.862,1.729,1.253c0.483,0.391,0.941,0.805,1.376,1.244
	c0.435-0.439,0.894-0.854,1.377-1.244c0.482-0.391,1.059-0.808,1.729-1.253c0.669-0.445,1.394-0.799,2.173-1.062
	c0.777-0.262,1.541-0.394,2.29-0.394c2.703,0,4.821,0.757,6.354,2.269c1.533,1.513,2.3,3.61,2.3,6.293
	c0,2.695-1.382,5.44-4.146,8.232l-11.279,10.977C896.58,909.94,896.314,910.05,896,910.05z"/>
</svg>
